<svg xmlns="http://www.w3.org/2000/svg" viewBox="0 0 48 48"><defs><style>.cls-1{fill:#fff;}</style></defs><title>01d</title><path class="cls-1" d="M46 26h-4a2 2 0 0 1 0-4h4a2 2 0 0 1 0 4zm-8-13.3a2 2 0 1 1-2.7-2.8L38 7a2 2 0 1 1 3 3zM24 36a12 12 0 1 1 12-12 12 12 0 0 1-12 12zm0-20a8 8 0 1 0 8 8 8 8 0 0 0-8-8zm0-8a2 2 0 0 1-2-2V2a2 2 0 0 1 4 0v4a2 2 0 0 1-2 2zm-14 4.7L7 10a2 2 0 1 1 3-3l2.7 2.8a2 2 0 0 1-2.8 3zM8 24a2 2 0 0 1-2 2H2a2 2 0 0 1 0-4h4a2 2 0 0 1 2 2zm2 11.3a2 2 0 0 1 2.7 2.8L10 41a2 2 0 1 1-3-3zM24 40a2 2 0 0 1 2 2v4a2 2 0 0 1-4 0v-4a2 2 0 0 1 2-2zm14-4.7l3 2.8a2 2 0 0 1-3 3l-2.7-2.8a2 2 0 1 1 2.8-3z"/></svg>