<svg xmlns="http://www.w3.org/2000/svg" viewBox="0 0 54 48"><defs><style>.cls-1{fill:#fff;}</style></defs><title>02d</title><path class="cls-1" d="M52 26h-4a2 2 0 1 1 0-4h4a2 2 0 1 1 0 4zm-7.8-13.3a2 2 0 0 1-2.8-2.8l2.8-3a2 2 0 1 1 2.8 3l-2.8 2.7zm-3 15.6A12 12 0 0 1 32 48H16a16 16 0 1 1 4.5-31.3 12 12 0 0 1 20.7 11.6zM4 32a12 12 0 0 0 12 12h16a8 8 0 1 0-4.3-14.7A12 12 0 0 0 4 32zm26-16a8 8 0 0 0-5.6 2.4 16 16 0 0 1 5.6 6l2-.3a12 12 0 0 1 6 1.6 8 8 0 0 0-8-9.5zm0-8a2 2 0 0 1-2-2V2a2 2 0 0 1 4 0v4a2 2 0 0 1-2 2zm-14 4.7L13 10a2 2 0 0 1 3-3l2.7 3a2 2 0 1 1-2.8 2.7z"/></svg>