<svg xmlns="http://www.w3.org/2000/svg" viewBox="0 0 54 58.4"><defs><style>.cls-1{fill:#fff;}</style></defs><title>09d</title><path class="cls-1" d="M52 26h-4a2 2 0 1 1 0-4h4a2 2 0 1 1 0 4zm-7.8-13.3a2 2 0 0 1-2.8-2.8l2.8-3a2 2 0 1 1 2.8 3l-2.8 2.7zm-3 15.6a12 12 0 0 1-5.2 19 7 7 0 0 0-1.2-3.8 8 8 0 1 0-7-14.2 12 12 0 1 0-23 6.7 12 12 0 0 0 5.3 6.4 7 7 0 0 0-1.8 3.4 16 16 0 0 1 12.4-29 12 12 0 0 1 20.6 11.5zM30 16a8 8 0 0 0-5.6 2.4 16 16 0 0 1 5.6 6l2-.3a12 12 0 0 1 6 1.6 8 8 0 0 0-8-9.5zm0-8a2 2 0 0 1-2-2V2a2 2 0 1 1 4 0v4a2 2 0 0 1-2 2zm-14 4.7L13 10a2 2 0 0 1 3-3l2.7 3a2 2 0 1 1-2.8 2.7zm-1 30.5l2.2 2.2a3 3 0 1 1-4.2 0l2-2zm7 8l2.2 2.2a3 3 0 1 1-4.2 0l2-2zm7-8l2.2 2.2a3 3 0 1 1-4.2 0l2-2z"/></svg>