<svg xmlns="http://www.w3.org/2000/svg" viewBox="0 0 45 49.4"><defs><style>.cls-1{fill:#fff;}</style></defs><title>09n</title><path class="cls-1" d="M42 20.2a12 12 0 0 1-6 18.2 7 7 0 0 0-1-3.8 8 8 0 1 0-7.2-14.2 12 12 0 1 0-23 6.7 12 12 0 0 0 5.4 6.5A7 7 0 0 0 8 37 16 16 0 0 1 21.7 8 12 12 0 0 1 33 0l2.2.3A8 8 0 0 0 35 2a8 8 0 0 0 8 8h1.8a12 12 0 0 1-3 10.2zm-10.7-16a8 8 0 0 0-6 6 16 16 0 0 1 4.8 5h2a12 12 0 0 1 7 2.2 8 8 0 0 0 2-3.5 12 12 0 0 1-9.7-9.7zM15 34.3l2.2 2.2a3 3 0 1 1-4.2 0l2-2zm7 8l2.2 2.2a3 3 0 1 1-4.2 0l2-2zm7-8l2.2 2.2a3 3 0 1 1-4.2 0l2-2z"/></svg>