<svg xmlns="http://www.w3.org/2000/svg" viewBox="0 0 54 60"><defs><style>.cls-1{fill:#fff;}</style></defs><title>10d</title><path class="cls-1" d="M52 26h-4a2 2 0 0 1 0-4h4a2 2 0 0 1 0 4zm-7.8-13.3a2 2 0 0 1-2.8-2.8l2.8-3a2 2 0 1 1 2.8 3zm-3 15.6a12 12 0 0 1-5.2 19V43a8 8 0 1 0-8.3-13.6A12 12 0 1 0 8 41v5a16 16 0 0 1 12.6-29.3 12 12 0 0 1 20.6 11.6zM30 16a8 8 0 0 0-5.6 2.4 16 16 0 0 1 5.6 6l2-.3a12 12 0 0 1 6 1.6 8 8 0 0 0-8-9.5zm0-8a2 2 0 0 1-2-2V2a2 2 0 0 1 4 0v4a2 2 0 0 1-2 2zm-14 4.7L13 10a2 2 0 1 1 3-3l2.7 3a2 2 0 1 1-2.8 2.7zM14 36a2 2 0 0 1 2 2v16a2 2 0 0 1-4 0V38a2 2 0 0 1 2-2zm8 4a2 2 0 0 1 2 2v16a2 2 0 0 1-4 0V42a2 2 0 0 1 2-2zm8-4a2 2 0 0 1 2 2v16a2 2 0 0 1-4 0V38a2 2 0 0 1 2-2z"/></svg>