<svg xmlns="http://www.w3.org/2000/svg" viewBox="0 0 45 51"><defs><style>.cls-1{fill:#fff;}</style></defs><title>10n</title><path class="cls-1" d="M22 31a2 2 0 0 0-2 2v16a2 2 0 0 0 4 0V33a2 2 0 0 0-2-2zm8-4a2 2 0 0 0-2 2v16a2 2 0 1 0 4 0V29a2 2 0 0 0-2-2zm-16 0a2 2 0 0 0-2 2v16a2 2 0 0 0 4 0V29a2 2 0 0 0-2-2zm31-15a12.2 12.2 0 0 0-.2-2.2L43 10A8 8 0 0 1 35.2.2L33 0a12 12 0 0 0-11.3 8A16 16 0 0 0 8 37v-5a12 12 0 1 1 19.7-11.7A8 8 0 1 1 36 34v4.4a12 12 0 0 0 5.8-18.2A12 12 0 0 0 45 12zm-6 5.3a12 12 0 0 0-7-2.3l-2 .2a16 16 0 0 0-4.7-5.2 8 8 0 0 1 6-5.8 12 12 0 0 0 9.5 9.6 8 8 0 0 1-1.8 3.5z"/></svg>